<svg width="36" height="36" viewBox="0 0 36 36" fill="none" xmlns="http://www.w3.org/2000/svg">
<path d="M3 3H4.959C5.328 3 5.514 3 5.661 3.0675C5.79193 3.12741 5.90285 3.22375 5.9805 3.345C6.069 3.483 6.0945 3.6645 6.147 4.0305L6.8565 9M6.8565 9L8.4345 20.5965C8.6355 22.0695 8.7345 22.8045 9.087 23.358C9.39692 23.846 9.84124 24.2341 10.3665 24.4755C10.9635 24.75 11.706 24.75 13.191 24.75H26.028C27.441 24.75 28.149 24.75 28.7265 24.495C29.2357 24.2707 29.6724 23.9092 29.988 23.451C30.3465 22.932 30.4785 22.236 30.7425 20.8485L32.7285 10.4235C32.8215 9.936 32.868 9.6915 32.8005 9.501C32.7414 9.33304 32.6244 9.19161 32.4705 9.102C32.298 9 32.049 9 31.551 9H6.8565ZM15 31.5C15 31.8978 14.842 32.2794 14.5607 32.5607C14.2794 32.842 13.8978 33 13.5 33C13.1022 33 12.7206 32.842 12.4393 32.5607C12.158 32.2794 12 31.8978 12 31.5C12 31.1022 12.158 30.7206 12.4393 30.4393C12.7206 30.158 13.1022 30 13.5 30C13.8978 30 14.2794 30.158 14.5607 30.4393C14.842 30.7206 15 31.1022 15 31.5ZM27 31.5C27 31.8978 26.842 32.2794 26.5607 32.5607C26.2794 32.842 25.8978 33 25.5 33C25.1022 33 24.7206 32.842 24.4393 32.5607C24.158 32.2794 24 31.8978 24 31.5C24 31.1022 24.158 30.7206 24.4393 30.4393C24.7206 30.158 25.1022 30 25.5 30C25.8978 30 26.2794 30.158 26.5607 30.4393C26.842 30.7206 27 31.1022 27 31.5Z" stroke="#0F0043" stroke-width="1.5" stroke-linecap="round" stroke-linejoin="round"/>
</svg>
