<svg width="30" height="30" viewBox="0 0 30 30" fill="none" xmlns="http://www.w3.org/2000/svg">
<rect width="30" height="30" rx="15" fill="white"/>
<path fill-rule="evenodd" clip-rule="evenodd" d="M11.6351 5.80016C12.588 5.75473 12.8918 5.74463 15.3192 5.74463C17.7466 5.74463 18.0504 5.75557 19.0026 5.80016C19.9547 5.84475 20.6046 6.0021 21.1732 6.23011C21.7687 6.46318 22.3089 6.8275 22.7557 7.29868C23.2107 7.76061 23.5616 8.31929 23.7858 8.93687C24.0068 9.52585 24.1579 10.199 24.2018 11.1834C24.2456 12.172 24.2554 12.4867 24.2554 14.9999C24.2554 17.514 24.2448 17.8287 24.2018 18.8157C24.1587 19.8001 24.0068 20.4732 23.7858 21.0622C23.5616 21.6798 23.2101 22.2395 22.7557 22.7021C22.3089 23.1732 21.7687 23.5367 21.1732 23.7689C20.6046 23.9978 19.9547 24.1543 19.0042 24.1997C18.0504 24.2452 17.7466 24.2553 15.3192 24.2553C12.8918 24.2553 12.588 24.2443 11.6351 24.1997C10.6846 24.1551 10.0347 23.9978 9.46604 23.7689C8.86968 23.5367 8.32937 23.1726 7.88271 22.7021C7.42808 22.2399 7.07627 21.6805 6.8518 21.063C6.63164 20.474 6.48054 19.8009 6.43667 18.8165C6.39281 17.8279 6.38306 17.5132 6.38306 14.9999C6.38306 12.4859 6.39362 12.1712 6.43667 11.1851C6.47973 10.199 6.63164 9.52585 6.8518 8.93687C7.0766 8.31936 7.42869 7.76003 7.88352 7.29784C8.32955 6.82708 8.86932 6.46271 9.46522 6.23011C10.0339 6.0021 10.6846 5.8456 11.6351 5.80016ZM18.9303 7.46612C17.9879 7.42152 17.7052 7.41227 15.3192 7.41227C12.9333 7.41227 12.6506 7.42152 11.7082 7.46612C10.8365 7.50735 10.3637 7.65796 10.0485 7.78501C9.63176 7.95328 9.33362 8.15269 9.02085 8.47663C8.72437 8.77537 8.4962 9.13904 8.35308 9.54099C8.23041 9.86745 8.08499 10.3571 8.04518 11.26C8.00213 12.236 7.99319 12.5288 7.99319 14.9999C7.99319 17.4711 8.00213 17.7639 8.04518 18.7399C8.08499 19.6428 8.23041 20.1324 8.35308 20.4589C8.49605 20.8602 8.72433 21.2246 9.02085 21.5233C9.30925 21.8304 9.66101 22.0668 10.0485 22.2149C10.3637 22.3419 10.8365 22.4926 11.7082 22.5338C12.6506 22.5784 12.9325 22.5876 15.3192 22.5876C17.706 22.5876 17.9879 22.5784 18.9303 22.5338C19.8019 22.4926 20.2747 22.3419 20.5899 22.2149C21.0067 22.0466 21.3048 21.8472 21.6176 21.5233C21.9141 21.2246 22.1424 20.8602 22.2854 20.4589C22.408 20.1324 22.5535 19.6428 22.5933 18.7399C22.6363 17.7639 22.6453 17.4711 22.6453 14.9999C22.6453 12.5288 22.6363 12.236 22.5933 11.26C22.5535 10.3571 22.408 9.86745 22.2854 9.54099C22.1229 9.10936 21.9304 8.80057 21.6176 8.47663C21.3291 8.16958 20.978 7.93327 20.5899 7.78501C20.2747 7.65796 19.8019 7.50735 18.9303 7.46612ZM14.1778 17.8531C14.8153 18.1279 15.5251 18.165 16.186 17.9581C16.8469 17.7511 17.4179 17.3129 17.8015 16.7183C18.1852 16.1237 18.3576 15.4096 18.2893 14.698C18.2211 13.9864 17.9164 13.3213 17.4274 12.8165C17.1156 12.4938 16.7386 12.2468 16.3236 12.0931C15.9086 11.9394 15.4658 11.8829 15.0272 11.9277C14.5885 11.9725 14.165 12.1175 13.7869 12.3522C13.4089 12.5869 13.0858 12.9055 12.8409 13.2851C12.596 13.6646 12.4354 14.0957 12.3707 14.5472C12.306 14.9988 12.3387 15.4596 12.4666 15.8965C12.5944 16.3333 12.8142 16.7354 13.1101 17.0737C13.406 17.4121 13.7707 17.6783 14.1778 17.8531ZM12.0713 11.6361C12.4979 11.1943 13.0042 10.8439 13.5615 10.6048C14.1188 10.3657 14.716 10.2427 15.3192 10.2427C15.9224 10.2427 16.5197 10.3657 17.077 10.6048C17.6342 10.8439 18.1406 11.1943 18.5671 11.6361C18.9936 12.0778 19.332 12.6022 19.5628 13.1794C19.7936 13.7566 19.9124 14.3752 19.9124 14.9999C19.9124 15.6247 19.7936 16.2433 19.5628 16.8205C19.332 17.3976 18.9936 17.9221 18.5671 18.3638C17.7057 19.256 16.5374 19.7572 15.3192 19.7572C14.101 19.7572 12.9327 19.256 12.0713 18.3638C11.2099 17.4717 10.726 16.2617 10.726 14.9999C10.726 13.7382 11.2099 12.5282 12.0713 11.6361ZM20.9311 10.9512C21.0368 10.8479 21.1215 10.7237 21.18 10.586C21.2385 10.4482 21.2697 10.2997 21.2719 10.1493C21.274 9.99879 21.2469 9.8494 21.1923 9.70995C21.1377 9.5705 21.0566 9.44382 20.9539 9.33741C20.8511 9.231 20.7288 9.14702 20.5942 9.09044C20.4595 9.03387 20.3153 9.00585 20.17 9.00804C20.0247 9.01023 19.8813 9.0426 19.7483 9.10321C19.6153 9.16383 19.4954 9.25147 19.3957 9.36093C19.2018 9.57383 19.0957 9.85662 19.0998 10.1493C19.1039 10.4419 19.218 10.7214 19.4178 10.9283C19.6176 11.1353 19.8874 11.2534 20.17 11.2577C20.4526 11.262 20.7256 11.152 20.9311 10.9512Z" fill="black"/>
</svg>
