<svg width="30" height="30" viewBox="0 0 30 30" fill="none" xmlns="http://www.w3.org/2000/svg">
<rect width="30" height="30" rx="15" fill="white"/>
<path fill-rule="evenodd" clip-rule="evenodd" d="M25.6578 9.84369C25.8124 9.32093 25.6578 8.93604 24.9178 8.93604H22.4744C21.8526 8.93604 21.5659 9.26827 21.4104 9.63497C21.4104 9.63497 20.1678 12.695 18.4076 14.6826C17.8379 15.259 17.5791 15.4419 17.2682 15.4419C17.1128 15.4419 16.8792 15.259 16.8792 14.7353V9.84369C16.8792 9.21561 16.7079 8.93604 16.1903 8.93604H12.3479C11.9597 8.93604 11.7261 9.2271 11.7261 9.5038C11.7261 10.0984 12.6066 10.2362 12.6969 11.9099V15.5462C12.6969 16.3438 12.5545 16.4884 12.2436 16.4884C11.4152 16.4884 9.39993 13.414 8.20381 9.89635C7.97203 9.21178 7.73746 8.93604 7.11288 8.93604H4.66758C3.96946 8.93604 3.82983 9.26827 3.82983 9.63497C3.82983 10.2879 4.65827 13.5318 7.68813 17.8221C9.70804 20.7519 12.5517 22.3403 15.1422 22.3403C16.6958 22.3403 16.8875 21.9879 16.8875 21.38V19.1654C16.8875 18.4598 17.0346 18.319 17.527 18.319C17.89 18.319 18.5109 18.5028 19.9611 19.9151C21.618 21.5897 21.8908 22.3403 22.8235 22.3403H25.2669C25.965 22.3403 26.315 21.9879 26.1139 21.2909C25.8924 20.5977 25.1012 19.5915 24.0522 18.3975C23.4825 17.7177 22.628 16.9853 22.3683 16.6186C22.0062 16.1485 22.1095 15.9388 22.3683 15.5204C22.3683 15.5204 25.3469 11.2827 25.6569 9.84369H25.6578Z" fill="black"/>
</svg>
