<svg width="13" height="12" viewBox="0 0 13 12" fill="none" xmlns="http://www.w3.org/2000/svg">
<path d="M1.01712 5.79273C0.995949 5.69773 0.994393 5.59859 1.01257 5.50282C1.03074 5.40705 1.06817 5.31717 1.12201 5.24001C1.17584 5.16284 1.24468 5.10042 1.32329 5.05749C1.40189 5.01455 1.4882 4.99221 1.57567 4.99219H11.6182C11.7056 4.99221 11.7919 5.01455 11.8705 5.05749C11.9492 5.10042 12.018 5.16284 12.0718 5.24001C12.1257 5.31717 12.1631 5.40705 12.1813 5.50282C12.1994 5.59859 12.1979 5.69773 12.1767 5.79273L11.1339 10.4613C11.0716 10.7402 10.9278 10.9877 10.7254 11.1647C10.523 11.3416 10.2736 11.4377 10.0168 11.4378H3.17706C2.92024 11.4377 2.67081 11.3416 2.4684 11.1647C2.26599 10.9877 2.12222 10.7402 2.05995 10.4613L1.01712 5.79337V5.79273Z" stroke="white" stroke-linecap="round" stroke-linejoin="round"/>
<path d="M4.86938 7.57031V8.85943" stroke="white" stroke-linecap="round" stroke-linejoin="round"/>
<path d="M8.32446 7.57031V8.85943" stroke="white" stroke-linecap="round" stroke-linejoin="round"/>
<path d="M3.14209 4.99186L5.44541 1.12451" stroke="white" stroke-linecap="round" stroke-linejoin="round"/>
<path d="M10.0519 4.99186L7.74854 1.12451" stroke="white" stroke-linecap="round" stroke-linejoin="round"/>
</svg>
