<svg width="11" height="11" viewBox="0 0 11 11" fill="none" xmlns="http://www.w3.org/2000/svg">
<path d="M5.08337 1.28485C5.22737 0.905051 5.77229 0.905051 5.91674 1.28485L6.8482 3.86511C6.91344 4.0361 7.07948 4.14995 7.26488 4.14995H9.55393C9.97691 4.14995 10.1614 4.67644 9.82886 4.93429L8.19994 6.39992C8.12697 6.45601 8.07364 6.53378 8.04761 6.62206C8.02158 6.71034 8.02418 6.8046 8.05504 6.89131L8.64992 9.41262C8.79481 9.81762 8.32593 10.1655 7.97135 9.91617L5.75879 8.51219C5.68302 8.45893 5.59267 8.43036 5.50005 8.43036C5.40744 8.43036 5.31709 8.45893 5.24132 8.51219L3.02876 9.91617C2.67463 10.1655 2.2053 9.81717 2.35019 9.41262L2.94507 6.89131C2.97593 6.8046 2.97853 6.71034 2.9525 6.62206C2.92647 6.53378 2.87314 6.45601 2.80017 6.39992L1.17125 4.93429C0.838261 4.67644 1.02365 4.14995 1.44573 4.14995H3.73478C3.82491 4.15025 3.913 4.12318 3.98741 4.07232C4.06181 4.02145 4.11902 3.9492 4.15146 3.86511L5.08292 1.28485H5.08337Z" fill="#FFD300" stroke="#FFD300" stroke-linecap="round" stroke-linejoin="round"/>
</svg>
