<svg width="580" height="581" viewBox="0 0 580 581" fill="none" xmlns="http://www.w3.org/2000/svg">
<path d="M116.113 34.0195C99.2343 36.3984 94.4765 37.3046 86.0937 39.7968C55.621 48.8593 31.6054 69.3632 17.1054 98.7031C7.70302 117.734 2.94521 137.672 0.906143 165.652C-6.23058 267.945 45.4257 367.746 151.23 456.672C187.48 487.145 232.68 517.391 275.613 540.16L290 547.863L304.5 540.16C374.168 503.23 441.344 452.027 486.769 401.051C553.605 326.172 584.644 246.875 579.094 165.652C577.055 137.332 572.297 117.734 562.668 98.4765C543.977 60.9804 511.465 39.2304 466.832 34.3593C421.406 29.3749 364.199 48.2929 327.723 80.2383C323.758 83.6367 320.926 86.6953 321.492 86.9218C321.945 87.2617 330.668 89.8672 340.976 92.6992C362.953 98.9297 383.004 105.953 392.519 110.711C414.269 121.473 431.715 138.918 442.59 160.781C446.101 167.691 452.332 185.93 453.578 193.066C454.258 196.691 454.144 196.691 452.219 191.934C445.309 175.055 431.828 163.16 412.344 156.93C401.129 153.418 396.824 152.625 366.351 148.887C335.766 145.035 322.965 142.43 312.883 138.238C309.371 136.766 306.312 135.633 306.199 135.746C305.973 135.859 314.582 185.137 325.344 245.289C346.641 365.141 346.98 368.312 342.336 381.453C328.742 419.062 277.879 440.926 235.398 427.559C202.887 417.25 184.762 389.496 192.125 361.289C198.242 337.613 219.426 317.789 247.519 309.633C257.375 306.801 277.766 305.555 287.055 307.367C290.793 308.047 293.965 308.387 294.305 308.047C294.644 307.82 286.035 257.184 275.16 195.672L255.562 83.75L250.578 78.9921C244.234 72.8749 225.996 60.8671 214.441 55.0898C196.656 46.2538 172.527 38.4374 154.402 35.7187C145.226 34.3593 121.324 33.2265 116.113 34.0195Z" fill="url(#paint0_linear_19_44)"/>
<defs>
<linearGradient id="paint0_linear_19_44" x1="289.99" y1="547.863" x2="289.99" y2="33.567" gradientUnits="userSpaceOnUse">
<stop stop-color="#FF575A"/>
<stop offset="1" stop-color="#C0282B"/>
</linearGradient>
</defs>
</svg>
