<svg width="177" height="38" viewBox="0 0 177 38" fill="none" xmlns="http://www.w3.org/2000/svg">
<g clip-path="url(#clip0_34_2)">
<path d="M7.46953 1.97281C6.38371 2.12584 6.07763 2.18414 5.53837 2.34446C3.57805 2.92746 2.03311 4.24648 1.10032 6.13393C0.495467 7.35821 0.189395 8.6408 0.0582218 10.4408C-0.400886 17.0213 2.92218 23.4416 9.72863 29.1622C12.0606 31.1225 14.9683 33.0682 17.7302 34.533L18.6557 35.0286L19.5885 34.533C24.0703 32.1573 28.3917 28.8634 31.314 25.5841C35.6136 20.7671 37.6103 15.6659 37.2532 10.4408C37.1221 8.61894 36.816 7.35822 36.1966 6.11935C34.9941 3.70721 32.9026 2.30803 30.0314 1.99467C27.1091 1.67402 23.429 2.89103 21.0824 4.94608C20.8274 5.1647 20.6452 5.36146 20.6816 5.37603C20.7108 5.3979 21.2719 5.56551 21.9351 5.74769C23.3488 6.1485 24.6387 6.60032 25.2508 6.90639C26.65 7.5987 27.7723 8.72096 28.4719 10.1274C28.6978 10.572 29.0986 11.7452 29.1788 12.2044C29.2225 12.4375 29.2152 12.4375 29.0913 12.1315C28.6468 11.0457 27.7796 10.2805 26.5261 9.87966C25.8047 9.65375 25.5278 9.60274 23.5675 9.36226C21.5998 9.11448 20.7764 8.94687 20.1278 8.67724C19.9019 8.5825 19.7051 8.50963 19.6978 8.51691C19.6833 8.5242 20.2371 11.6942 20.9294 15.5639C22.2994 23.2739 22.3213 23.478 22.0225 24.3233C21.148 26.7428 17.876 28.1492 15.1432 27.2893C13.0517 26.6262 11.8857 24.8407 12.3594 23.0262C12.7529 21.5031 14.1157 20.2278 15.9229 19.7031C16.5569 19.5209 17.8687 19.4408 18.4663 19.5574C18.7067 19.6011 18.9108 19.6229 18.9327 19.6011C18.9545 19.5865 18.4007 16.329 17.7011 12.372L16.4404 5.17199L16.1197 4.86591C15.7116 4.47239 14.5383 3.69993 13.795 3.32827C12.6509 2.75985 11.0987 2.25702 9.93268 2.08212C9.3424 1.99467 7.80475 1.92179 7.46953 1.97281Z" fill="url(#paint0_linear_34_2)"/>
</g>
<path d="M166.721 24.7903C164.75 24.7903 162.913 24.5028 161.212 23.9279C159.536 23.3308 158.07 22.5015 156.813 21.44C155.58 20.3564 154.619 19.0849 153.929 17.6253C153.239 16.1658 152.894 14.5736 152.894 12.8487C152.894 11.1237 153.239 9.53152 153.929 8.07199C154.619 6.61245 155.593 5.35194 156.85 4.29046C158.107 3.20686 159.573 2.37758 161.249 1.80261C162.926 1.20552 164.762 0.906982 166.758 0.906982C168.878 0.906982 170.813 1.2387 172.563 1.90212C174.313 2.54343 175.792 3.5054 177 4.78803L173.894 7.40856C172.958 6.50188 171.91 5.82739 170.751 5.38511C169.593 4.92071 168.336 4.68851 166.98 4.68851C165.625 4.68851 164.38 4.88754 163.246 5.2856C162.137 5.68365 161.163 6.24756 160.325 6.97733C159.512 7.7071 158.871 8.56956 158.403 9.5647C157.959 10.5598 157.737 11.6545 157.737 12.8487C157.737 14.0428 157.959 15.1375 158.403 16.1326C158.871 17.1278 159.512 17.9902 160.325 18.72C161.163 19.4497 162.137 20.0137 163.246 20.4117C164.38 20.8098 165.625 21.0088 166.98 21.0088C168.336 21.0088 169.593 20.7877 170.751 20.3454C171.91 19.881 172.958 19.1844 173.894 18.2556L177 20.9093C175.792 22.1698 174.313 23.1318 172.563 23.7952C170.813 24.4586 168.866 24.7903 166.721 24.7903Z" fill="#0F0043"/>
<path d="M140.256 9.10037C143.337 9.10037 145.716 9.71957 147.392 10.958C149.068 12.1964 149.906 14.054 149.906 16.5307C149.906 19.1402 148.982 21.1194 147.133 22.4684C145.309 23.7953 142.758 24.4587 139.48 24.4587H128.351V1.23877H133.084V9.10037H140.256ZM139.258 21.1416C141.107 21.1416 142.536 20.7546 143.547 19.9806C144.582 19.2066 145.1 18.0787 145.1 16.5971C145.1 15.1376 144.595 14.0761 143.584 13.4126C142.573 12.7271 141.131 12.3843 139.258 12.3843H133.084V21.1416H139.258Z" fill="#0F0043"/>
<path d="M98.4429 24.7904C98.0239 24.7904 97.6049 24.7572 97.1859 24.6909C96.7668 24.6245 96.3108 24.5471 95.8179 24.4587L96.1506 20.7103C96.4957 20.7988 96.8654 20.843 97.2598 20.843C98.2951 20.843 99.1208 20.4671 99.737 19.7152C100.353 18.9412 100.797 17.8134 101.068 16.3317C101.339 14.8501 101.524 13.0256 101.623 10.8584L101.992 1.23877H121.033V24.4587H116.301V3.82613L117.41 4.88761H105.098L106.133 3.79296L105.875 10.6926C105.801 12.9925 105.628 15.0159 105.357 16.7629C105.086 18.51 104.667 19.9806 104.1 21.1747C103.558 22.3468 102.83 23.2424 101.918 23.8616C101.006 24.4808 99.8479 24.7904 98.4429 24.7904Z" fill="#0F0043"/>
<path d="M74.0911 20.8098C75.4468 21.23 76.6423 21.3406 77.6775 21.1416C78.7128 20.9425 79.6371 20.268 80.4505 19.1181L81.7076 17.36L82.1882 16.8956L91.2096 1.23877H95.9421L84.7024 19.9806C83.7904 21.5507 82.7058 22.7448 81.4488 23.5631C80.1917 24.3813 78.836 24.8346 77.3817 24.9231C75.9521 25.0337 74.4609 24.7904 72.908 24.1933L74.0911 20.8098ZM82.0773 20.6108L70.5417 1.23877H75.681L84.7024 17.2937L82.0773 20.6108Z" fill="#0F0043"/>
<path d="M43.5374 24.4587V1.23877H66.4236V24.4587H61.6911V3.82613L62.8002 4.88761H47.1607L48.2699 3.82613V24.4587H43.5374Z" fill="#0F0043"/>
<path d="M173.097 35.6379V32.3167H174.721C175.123 32.3167 175.438 32.3913 175.666 32.5406C175.898 32.6898 176.014 32.9013 176.014 33.175C176.014 33.4445 175.907 33.6559 175.691 33.8094C175.475 33.9586 175.189 34.0333 174.833 34.0333L174.926 33.8405C175.328 33.8405 175.627 33.9151 175.822 34.0644C176.021 34.2095 176.12 34.423 176.12 34.705C176.12 34.9994 176.01 35.2295 175.791 35.3954C175.571 35.5571 175.237 35.6379 174.789 35.6379H173.097ZM173.838 35.0719H174.727C174.938 35.0719 175.098 35.0388 175.206 34.9724C175.314 34.9019 175.368 34.7962 175.368 34.6552C175.368 34.506 175.318 34.3961 175.218 34.3256C175.119 34.2551 174.963 34.2199 174.752 34.2199H173.838V35.0719ZM173.838 33.7036H174.652C174.851 33.7036 175.001 33.6684 175.1 33.5979C175.204 33.5233 175.256 33.4196 175.256 33.2869C175.256 33.1501 175.204 33.0485 175.1 32.9822C175.001 32.9158 174.851 32.8826 174.652 32.8826H173.838V33.7036Z" fill="#0F0043"/>
<path d="M169.997 35.6814C169.657 35.6814 169.354 35.6089 169.089 35.4637C168.824 35.3145 168.614 35.1113 168.461 34.8542C168.307 34.5971 168.231 34.3048 168.231 33.9773C168.231 33.6455 168.307 33.3532 168.461 33.1003C168.614 32.8432 168.824 32.6421 169.089 32.497C169.354 32.3519 169.657 32.2793 169.997 32.2793C170.341 32.2793 170.646 32.3519 170.911 32.497C171.181 32.6421 171.39 32.8411 171.54 33.0941C171.693 33.347 171.77 33.6414 171.77 33.9773C171.77 34.3048 171.693 34.5971 171.54 34.8542C171.39 35.1113 171.181 35.3145 170.911 35.4637C170.646 35.6089 170.341 35.6814 169.997 35.6814ZM169.997 35.0159C170.188 35.0159 170.358 34.9745 170.507 34.8915C170.656 34.8086 170.772 34.6884 170.855 34.5308C170.942 34.3732 170.986 34.1887 170.986 33.9773C170.986 33.7616 170.942 33.5771 170.855 33.4237C170.772 33.2661 170.656 33.1459 170.507 33.063C170.358 32.98 170.19 32.9386 170.003 32.9386C169.813 32.9386 169.643 32.98 169.493 33.063C169.348 33.1459 169.232 33.2661 169.145 33.4237C169.058 33.5771 169.014 33.7616 169.014 33.9773C169.014 34.1887 169.058 34.3732 169.145 34.5308C169.232 34.6884 169.348 34.8086 169.493 34.8915C169.643 34.9745 169.81 35.0159 169.997 35.0159Z" fill="#0F0043"/>
<path d="M165.598 35.6379V32.7893L165.779 32.9759H164.429V32.3167H167.539V32.9759H166.195L166.376 32.7893V35.6379H165.598Z" fill="#0F0043"/>
<path d="M160.078 35.6379V32.3167H160.856V33.6663H162.529V32.3167H163.306V35.6379H162.529V34.3256H160.856V35.6379H160.078Z" fill="#0F0043"/>
<path d="M157.822 35.6379V34.9662L157.779 34.8231V33.6476C157.779 33.4196 157.71 33.2433 157.574 33.1189C157.437 32.9904 157.229 32.9261 156.952 32.9261C156.765 32.9261 156.581 32.9552 156.398 33.0132C156.22 33.0713 156.068 33.1521 155.944 33.2558L155.639 32.6898C155.818 32.553 156.029 32.4514 156.274 32.385C156.522 32.3145 156.78 32.2793 157.045 32.2793C157.526 32.2793 157.897 32.3954 158.158 32.6276C158.424 32.8556 158.556 33.2102 158.556 33.6912V35.6379H157.822ZM156.777 35.6814C156.529 35.6814 156.311 35.64 156.124 35.557C155.938 35.47 155.793 35.3518 155.689 35.2025C155.59 35.0491 155.54 34.877 155.54 34.6863C155.54 34.4997 155.583 34.3318 155.67 34.1825C155.762 34.0332 155.909 33.9151 156.112 33.828C156.315 33.7409 156.585 33.6974 156.921 33.6974H157.885V34.2136H156.977C156.711 34.2136 156.533 34.2571 156.442 34.3442C156.35 34.4271 156.305 34.5308 156.305 34.6552C156.305 34.7962 156.361 34.9081 156.473 34.9911C156.585 35.074 156.74 35.1154 156.939 35.1154C157.13 35.1154 157.3 35.0719 157.449 34.9848C157.603 34.8978 157.713 34.7692 157.779 34.5992L157.909 35.0657C157.835 35.2606 157.7 35.4119 157.505 35.5197C157.314 35.6275 157.072 35.6814 156.777 35.6814Z" fill="#0F0043"/>
<path d="M153.846 35.6379L152.645 34.0457L153.28 33.6539L154.76 35.6379H153.846ZM151.464 35.6379V32.3167H152.241V35.6379H151.464ZM152.011 34.3069V33.6601H153.137V34.3069H152.011ZM153.354 34.0706L152.627 33.9835L153.846 32.3167H154.679L153.354 34.0706Z" fill="#0F0043"/>
<path d="M149.081 35.6379V32.3167H149.859V35.6379H149.081ZM147.346 33.4113C147.773 33.4113 148.097 33.5067 148.316 33.6974C148.54 33.8881 148.652 34.1577 148.652 34.506C148.652 34.8667 148.528 35.1487 148.279 35.3518C148.034 35.5509 147.686 35.6483 147.234 35.6441L145.729 35.6379V32.3167H146.506V33.4051L147.346 33.4113ZM147.166 35.0719C147.394 35.0761 147.568 35.0284 147.688 34.9289C147.808 34.8294 147.869 34.6843 147.869 34.4935C147.869 34.3028 147.808 34.166 147.688 34.083C147.572 33.9959 147.398 33.9503 147.166 33.9462L146.506 33.94V35.0657L147.166 35.0719Z" fill="#0F0043"/>
<path d="M142.782 35.6941C142.529 35.6941 142.279 35.6651 142.03 35.607C141.785 35.5448 141.563 35.4577 141.364 35.3458L141.582 34.7674C141.744 34.8586 141.926 34.9291 142.129 34.9788C142.332 35.0286 142.536 35.0535 142.739 35.0535C142.913 35.0535 143.062 35.0369 143.187 35.0037C143.311 34.9664 143.406 34.9125 143.473 34.842C143.543 34.7715 143.578 34.6906 143.578 34.5994C143.578 34.4667 143.52 34.3672 143.404 34.3009C143.292 34.2304 143.131 34.1952 142.919 34.1952H142.279V33.6727H142.857C142.99 33.6727 143.102 33.6582 143.193 33.6292C143.288 33.6001 143.361 33.5566 143.411 33.4986C143.46 33.4405 143.485 33.3721 143.485 33.2933C143.485 33.2145 143.454 33.1461 143.392 33.0881C143.334 33.0259 143.249 32.9803 143.137 32.9512C143.025 32.9181 142.89 32.9015 142.733 32.9015C142.567 32.9015 142.395 32.9222 142.216 32.9637C142.042 33.0051 141.864 33.0653 141.681 33.144L141.482 32.5718C141.694 32.4765 141.899 32.4039 142.098 32.3541C142.301 32.3002 142.502 32.2712 142.701 32.2671C143.004 32.2546 143.274 32.2857 143.51 32.3604C143.746 32.435 143.933 32.5428 144.07 32.6838C144.207 32.8248 144.275 32.9906 144.275 33.1814C144.275 33.3389 144.225 33.482 144.126 33.6105C144.03 33.7349 143.898 33.8323 143.728 33.9028C143.562 33.9733 143.371 34.0086 143.156 34.0086L143.18 33.8406C143.549 33.8406 143.84 33.9153 144.051 34.0645C144.263 34.2097 144.368 34.4087 144.368 34.6616C144.368 34.8648 144.3 35.0452 144.163 35.2027C144.026 35.3561 143.838 35.4764 143.597 35.5635C143.361 35.6505 143.089 35.6941 142.782 35.6941Z" fill="#0F0043"/>
<path d="M137.874 36.8881C137.713 36.8881 137.551 36.8611 137.389 36.8072C137.227 36.7533 137.093 36.6787 136.985 36.5833L137.296 36.0111C137.375 36.0816 137.464 36.1376 137.563 36.179C137.663 36.2205 137.764 36.2412 137.868 36.2412C138.009 36.2412 138.123 36.206 138.21 36.1355C138.297 36.065 138.378 35.9468 138.453 35.781L138.646 35.3456L138.708 35.2523L139.964 32.3167H140.71L139.156 35.9054C139.052 36.1542 138.936 36.3511 138.807 36.4962C138.683 36.6414 138.542 36.7429 138.384 36.801C138.231 36.859 138.061 36.8881 137.874 36.8881ZM138.558 35.7561L137.059 32.3167H137.868L139.087 35.1839L138.558 35.7561Z" fill="#0F0043"/>
<path d="M132.005 35.6379V32.3167H132.82L134.157 34.6739H133.834L135.239 32.3167H135.967L135.973 35.6379H135.27V33.1501L135.395 33.2309L134.151 35.2896H133.815L132.565 33.175L132.714 33.1376V35.6379H132.005Z" fill="#0F0043"/>
<path d="M127.424 35.6379V34.506L127.536 34.6366H126.541C126.085 34.6366 125.726 34.5412 125.465 34.3505C125.208 34.1556 125.079 33.8757 125.079 33.5108C125.079 33.1211 125.216 32.8246 125.49 32.6214C125.768 32.4182 126.137 32.3167 126.597 32.3167H128.121V35.6379H127.424ZM125.036 35.6379L125.932 34.3691H126.728L125.869 35.6379H125.036ZM127.424 34.2572V32.7645L127.536 32.9697H126.622C126.381 32.9697 126.195 33.0153 126.062 33.1065C125.934 33.1936 125.869 33.3367 125.869 33.5357C125.869 33.9089 126.112 34.0955 126.597 34.0955H127.536L127.424 34.2572Z" fill="#0F0043"/>
<path d="M120.214 35.6317L120.251 34.9786C120.28 34.9828 120.307 34.9869 120.332 34.9911C120.357 34.9952 120.379 34.9973 120.4 34.9973C120.529 34.9973 120.628 34.9579 120.699 34.8791C120.769 34.8004 120.821 34.6946 120.854 34.5619C120.892 34.4251 120.916 34.2738 120.929 34.1079C120.945 33.9379 120.958 33.7679 120.966 33.5979L121.022 32.3167H123.709V35.6379H122.932V32.7645L123.112 32.9759H121.532L121.7 32.7582L121.657 33.6352C121.644 33.9296 121.619 34.2033 121.582 34.4562C121.549 34.705 121.495 34.9227 121.42 35.1093C121.35 35.2958 121.25 35.441 121.122 35.5446C120.997 35.6483 120.838 35.7001 120.643 35.7001C120.581 35.7001 120.512 35.6939 120.438 35.6815C120.367 35.669 120.292 35.6524 120.214 35.6317Z" fill="#0F0043"/>
<path d="M118.176 35.2772V32.9759H116.901L116.882 33.5108C116.874 33.7016 116.862 33.8861 116.845 34.0644C116.828 34.2385 116.801 34.4002 116.764 34.5495C116.727 34.6946 116.673 34.8149 116.602 34.9102C116.532 35.0056 116.439 35.0678 116.323 35.0968L115.551 34.9786C115.676 34.9786 115.775 34.9393 115.85 34.8605C115.929 34.7775 115.989 34.6656 116.03 34.5246C116.076 34.3795 116.109 34.2157 116.13 34.0333C116.15 33.8467 116.165 33.6539 116.173 33.4548L116.217 32.3167H118.953V35.2772H118.176ZM115.433 36.3781V34.9786H119.445V36.3781H118.717V35.6379H116.155V36.3781H115.433Z" fill="#0F0043"/>
<path d="M108.791 35.6379V32.3167H109.568V33.6663H111.242V32.3167H112.019V35.6379H111.242V34.3256H109.568V35.6379H108.791Z" fill="#0F0043"/>
<path d="M103.864 35.6379V32.3167H104.642V34.506L106.476 32.3167H107.186V35.6379H106.408V33.4486L104.58 35.6379H103.864Z" fill="#0F0043"/>
<path d="M100.918 35.6941C100.665 35.6941 100.414 35.6651 100.165 35.607C99.9206 35.5448 99.6988 35.4577 99.4998 35.3458L99.7174 34.7674C99.8792 34.8586 100.062 34.9291 100.265 34.9788C100.468 35.0286 100.671 35.0535 100.874 35.0535C101.048 35.0535 101.198 35.0369 101.322 35.0037C101.446 34.9664 101.542 34.9125 101.608 34.842C101.679 34.7715 101.714 34.6906 101.714 34.5994C101.714 34.4667 101.656 34.3672 101.54 34.3009C101.428 34.2304 101.266 34.1952 101.055 34.1952H100.414V33.6727H100.992C101.125 33.6727 101.237 33.6582 101.328 33.6292C101.424 33.6001 101.496 33.5566 101.546 33.4986C101.596 33.4405 101.621 33.3721 101.621 33.2933C101.621 33.2145 101.59 33.1461 101.527 33.0881C101.469 33.0259 101.384 32.9803 101.272 32.9512C101.16 32.9181 101.026 32.9015 100.868 32.9015C100.702 32.9015 100.53 32.9222 100.352 32.9637C100.178 33.0051 99.9994 33.0653 99.817 33.144L99.6179 32.5718C99.8294 32.4765 100.035 32.4039 100.234 32.3541C100.437 32.3002 100.638 32.2712 100.837 32.2671C101.14 32.2546 101.409 32.2857 101.646 32.3604C101.882 32.435 102.068 32.5428 102.205 32.6838C102.342 32.8248 102.411 32.9906 102.411 33.1814C102.411 33.3389 102.361 33.482 102.261 33.6105C102.166 33.7349 102.033 33.8323 101.863 33.9028C101.697 33.9733 101.507 34.0086 101.291 34.0086L101.316 33.8406C101.685 33.8406 101.975 33.9153 102.187 34.0645C102.398 34.2097 102.504 34.4087 102.504 34.6616C102.504 34.8648 102.435 35.0452 102.299 35.2027C102.162 35.3561 101.973 35.4764 101.733 35.5635C101.496 35.6505 101.225 35.6941 100.918 35.6941Z" fill="#0F0043"/>
<path d="M97.6535 35.6379V34.9662L97.6099 34.8231V33.6476C97.6099 33.4196 97.5415 33.2433 97.4047 33.1189C97.2678 32.9904 97.0605 32.9261 96.7827 32.9261C96.5961 32.9261 96.4116 32.9552 96.2292 33.0132C96.0509 33.0713 95.8995 33.1521 95.7751 33.2558L95.4704 32.6898C95.6487 32.553 95.8601 32.4514 96.1048 32.385C96.3536 32.3145 96.6106 32.2793 96.876 32.2793C97.357 32.2793 97.7281 32.3954 97.9893 32.6276C98.2547 32.8556 98.3874 33.2102 98.3874 33.6912V35.6379H97.6535ZM96.6086 35.6814C96.3598 35.6814 96.1421 35.64 95.9555 35.557C95.7689 35.47 95.6238 35.3518 95.5201 35.2025C95.4206 35.0491 95.3708 34.877 95.3708 34.6863C95.3708 34.4997 95.4144 34.3318 95.5015 34.1825C95.5927 34.0332 95.7399 33.9151 95.9431 33.828C96.1462 33.7409 96.4157 33.6974 96.7516 33.6974H97.7156V34.2136H96.8076C96.5422 34.2136 96.3639 34.2571 96.2727 34.3442C96.1815 34.4271 96.1359 34.5308 96.1359 34.6552C96.1359 34.7962 96.1918 34.9081 96.3038 34.9911C96.4157 35.074 96.5712 35.1154 96.7703 35.1154C96.961 35.1154 97.131 35.0719 97.2803 34.9848C97.4337 34.8978 97.5436 34.7692 97.6099 34.5992L97.7405 35.0657C97.6659 35.2606 97.5311 35.4119 97.3362 35.5197C97.1455 35.6275 96.9029 35.6814 96.6086 35.6814Z" fill="#0F0043"/>
<path d="M91.9626 35.6379V32.3167H94.5127V32.9759H92.5597L92.7401 32.8018V35.6379H91.9626Z" fill="#0F0043"/>
<path d="M89.7069 35.6379V34.9662L89.6634 34.8231V33.6476C89.6634 33.4196 89.595 33.2433 89.4581 33.1189C89.3213 32.9904 89.114 32.9261 88.8362 32.9261C88.6496 32.9261 88.4651 32.9552 88.2826 33.0132C88.1043 33.0713 87.953 33.1521 87.8286 33.2558L87.5238 32.6898C87.7021 32.553 87.9136 32.4514 88.1582 32.385C88.407 32.3145 88.6641 32.2793 88.9295 32.2793C89.4105 32.2793 89.7816 32.3954 90.0428 32.6276C90.3081 32.8556 90.4408 33.2102 90.4408 33.6912V35.6379H89.7069ZM88.662 35.6814C88.4132 35.6814 88.1956 35.64 88.009 35.557C87.8224 35.47 87.6772 35.3518 87.5736 35.2025C87.4741 35.0491 87.4243 34.877 87.4243 34.6863C87.4243 34.4997 87.4679 34.3318 87.5549 34.1825C87.6462 34.0332 87.7933 33.9151 87.9965 33.828C88.1997 33.7409 88.4692 33.6974 88.8051 33.6974H89.7691V34.2136H88.8611C88.5957 34.2136 88.4174 34.2571 88.3262 34.3442C88.2349 34.4271 88.1893 34.5308 88.1893 34.6552C88.1893 34.7962 88.2453 34.9081 88.3573 34.9911C88.4692 35.074 88.6247 35.1154 88.8237 35.1154C89.0145 35.1154 89.1845 35.0719 89.3337 34.9848C89.4872 34.8978 89.597 34.7692 89.6634 34.5992L89.794 35.0657C89.7194 35.2606 89.5846 35.4119 89.3897 35.5197C89.199 35.6275 88.9564 35.6814 88.662 35.6814Z" fill="#0F0043"/>
<path d="M82.1211 35.6379V32.3167H82.9359L84.2731 34.6739H83.9497L85.3553 32.3167H86.083L86.0892 35.6379H85.3864V33.1501L85.5108 33.2309L84.2669 35.2896H83.931L82.6809 33.175L82.8301 33.1376V35.6379H82.1211Z" fill="#0F0043"/>
<path d="M78.9878 34.2323V33.5854H80.6982V34.2323H78.9878Z" fill="#0F0043"/>
<path d="M76.1952 35.6379V32.7893L76.3755 32.9759H75.0259V32.3167H78.1357V32.9759H76.7923L76.9726 32.7893V35.6379H76.1952Z" fill="#0F0043"/>
<path d="M72.661 35.6814C72.2919 35.6814 71.9685 35.6089 71.6907 35.4637C71.417 35.3145 71.2035 35.1113 71.0501 34.8542C70.9008 34.5971 70.8262 34.3048 70.8262 33.9773C70.8262 33.6455 70.8987 33.3532 71.0439 33.1003C71.1931 32.8432 71.3963 32.6421 71.6534 32.497C71.9146 32.3519 72.2111 32.2793 72.5428 32.2793C72.8662 32.2793 73.1544 32.3498 73.4073 32.4908C73.6602 32.6317 73.8593 32.8308 74.0044 33.0878C74.1495 33.3449 74.2221 33.6476 74.2221 33.9959C74.2221 34.0291 74.22 34.0664 74.2159 34.1079C74.2159 34.1493 74.2138 34.1887 74.2096 34.226H71.4419V33.7098H73.7992L73.4944 33.8715C73.4985 33.6808 73.4591 33.5129 73.3762 33.3677C73.2933 33.2226 73.1793 33.1086 73.0341 33.0257C72.8932 32.9427 72.7294 32.9013 72.5428 32.9013C72.3521 32.9013 72.1841 32.9427 72.039 33.0257C71.898 33.1086 71.7861 33.2247 71.7031 33.374C71.6244 33.5191 71.585 33.6912 71.585 33.8902V34.0146C71.585 34.2136 71.6306 34.3898 71.7218 34.5432C71.813 34.6967 71.9416 34.8148 72.1074 34.8978C72.2733 34.9807 72.464 35.0222 72.6796 35.0222C72.8662 35.0222 73.0341 34.9931 73.1834 34.9351C73.3327 34.877 73.4654 34.7858 73.5815 34.6614L73.9982 35.1403C73.8489 35.3145 73.6602 35.4492 73.4322 35.5446C73.2083 35.6358 72.9512 35.6814 72.661 35.6814Z" fill="#0F0043"/>
<path d="M66.2827 35.6379V32.3167H67.0602V33.6663H68.7332V32.3167H69.5107V35.6379H68.7332V34.3256H67.0602V35.6379H66.2827Z" fill="#0F0043"/>
<path d="M63.2636 35.6814C62.9941 35.6814 62.7474 35.6192 62.5235 35.4948C62.3037 35.3704 62.1275 35.1839 61.9948 34.9351C61.8663 34.6821 61.802 34.3629 61.802 33.9773C61.802 33.5875 61.8642 33.2682 61.9886 33.0194C62.1171 32.7706 62.2913 32.5861 62.511 32.4659C62.7308 32.3415 62.9817 32.2793 63.2636 32.2793C63.5912 32.2793 63.8794 32.3498 64.1281 32.4908C64.3811 32.6317 64.5801 32.8287 64.7252 33.0816C64.8745 33.3346 64.9491 33.6331 64.9491 33.9773C64.9491 34.3214 64.8745 34.622 64.7252 34.8791C64.5801 35.132 64.3811 35.329 64.1281 35.47C63.8794 35.6109 63.5912 35.6814 63.2636 35.6814ZM61.4226 36.8445V32.3166H62.1627V33.1003L62.1379 33.9835L62.2001 34.8667V36.8445H61.4226ZM63.1765 35.0159C63.3631 35.0159 63.529 34.9745 63.6741 34.8915C63.8234 34.8086 63.9416 34.6884 64.0286 34.5308C64.1157 34.3732 64.1592 34.1887 64.1592 33.9773C64.1592 33.7616 64.1157 33.5771 64.0286 33.4237C63.9416 33.2661 63.8234 33.1459 63.6741 33.063C63.529 32.98 63.3631 32.9386 63.1765 32.9386C62.99 32.9386 62.822 32.98 62.6728 33.063C62.5235 33.1459 62.4053 33.2661 62.3182 33.4237C62.2312 33.5771 62.1876 33.7616 62.1876 33.9773C62.1876 34.1887 62.2312 34.3732 62.3182 34.5308C62.4053 34.6884 62.5235 34.8086 62.6728 34.8915C62.822 34.9745 62.99 35.0159 63.1765 35.0159Z" fill="#0F0043"/>
<path d="M58.4515 35.6814C58.0825 35.6814 57.759 35.6089 57.4812 35.4637C57.2076 35.3145 56.994 35.1113 56.8406 34.8542C56.6913 34.5971 56.6167 34.3048 56.6167 33.9773C56.6167 33.6455 56.6893 33.3532 56.8344 33.1003C56.9837 32.8432 57.1868 32.6421 57.4439 32.497C57.7051 32.3519 58.0016 32.2793 58.3333 32.2793C58.6567 32.2793 58.9449 32.3498 59.1978 32.4908C59.4508 32.6317 59.6498 32.8308 59.7949 33.0878C59.94 33.3449 60.0126 33.6476 60.0126 33.9959C60.0126 34.0291 60.0105 34.0664 60.0064 34.1079C60.0064 34.1493 60.0043 34.1887 60.0002 34.226H57.2324V33.7098H59.5897L59.2849 33.8715C59.2891 33.6808 59.2497 33.5129 59.1667 33.3677C59.0838 33.2226 58.9698 33.1086 58.8247 33.0257C58.6837 32.9427 58.5199 32.9013 58.3333 32.9013C58.1426 32.9013 57.9746 32.9427 57.8295 33.0257C57.6885 33.1086 57.5766 33.2247 57.4937 33.374C57.4149 33.5191 57.3755 33.6912 57.3755 33.8902V34.0146C57.3755 34.2136 57.4211 34.3898 57.5123 34.5432C57.6035 34.6967 57.7321 34.8148 57.8979 34.8978C58.0638 34.9807 58.2545 35.0222 58.4701 35.0222C58.6567 35.0222 58.8247 34.9931 58.9739 34.9351C59.1232 34.877 59.2559 34.7858 59.372 34.6614L59.7887 35.1403C59.6394 35.3145 59.4508 35.4492 59.2227 35.5446C58.9988 35.6358 58.7417 35.6814 58.4515 35.6814Z" fill="#0F0043"/>
<path d="M53.9842 35.6379V32.7893L54.1646 32.9759H52.8149V32.3167H55.9248V32.9759H54.5813L54.7617 32.7893V35.6379H53.9842Z" fill="#0F0043"/>
<path d="M48.4641 35.6379V32.3167H49.2416V33.6663H50.9146V32.3167H51.6921V35.6379H50.9146V34.3256H49.2416V35.6379H48.4641Z" fill="#0F0043"/>
<path d="M43.5374 35.6379V32.3167H44.3148V34.506L46.1496 32.3167H46.8586V35.6379H46.0812V33.4486L44.2526 35.6379H43.5374Z" fill="#0F0043"/>
<defs>
<linearGradient id="paint0_linear_34_2" x1="18.6551" y1="35.0286" x2="18.6551" y2="1.9437" gradientUnits="userSpaceOnUse">
<stop stop-color="#FF575A"/>
<stop offset="1" stop-color="#C0282B"/>
</linearGradient>
<clipPath id="clip0_34_2">
<rect width="37.3116" height="37.3116" fill="white"/>
</clipPath>
</defs>
</svg>
