<svg width="177" height="38" viewBox="0 0 177 38" fill="none" xmlns="http://www.w3.org/2000/svg">
<g clip-path="url(#clip0_20_237)">
<path d="M7.46953 1.97256C6.3837 2.1256 6.07763 2.1839 5.53836 2.34422C3.57805 2.92722 2.03311 4.24624 1.10032 6.13368C0.495467 7.35797 0.189395 8.64056 0.0582218 10.4405C-0.400886 17.0211 2.92218 23.4413 9.72863 29.1619C12.0606 31.1223 14.9683 33.068 17.7302 34.5328L18.6557 35.0283L19.5885 34.5328C24.0703 32.1571 28.3917 28.8632 31.314 25.5838C35.6136 20.7668 37.6103 15.6656 37.2532 10.4405C37.1221 8.61869 36.816 7.35797 36.1966 6.11911C34.9941 3.70697 32.9026 2.30779 30.0314 1.99443C27.1091 1.67378 23.429 2.89078 21.0824 4.94583C20.8274 5.16446 20.6452 5.36121 20.6816 5.37579C20.7108 5.39765 21.2719 5.56526 21.9351 5.74745C23.3488 6.14826 24.6387 6.60008 25.2508 6.90615C26.65 7.59845 27.7723 8.72072 28.4719 10.1272C28.6978 10.5717 29.0986 11.745 29.1788 12.2041C29.2225 12.4373 29.2152 12.4373 29.0913 12.1312C28.6468 11.0454 27.7796 10.2802 26.5261 9.87942C25.8047 9.65351 25.5278 9.6025 23.5674 9.36201C21.5998 9.11424 20.7764 8.94663 20.1278 8.67699C19.9019 8.58226 19.7051 8.50938 19.6978 8.51667C19.6833 8.52396 20.2371 11.694 20.9294 15.5636C22.2994 23.2737 22.3213 23.4778 22.0225 24.3231C21.148 26.7425 17.876 28.149 15.1432 27.2891C13.0517 26.6259 11.8857 24.8405 12.3594 23.0259C12.7529 21.5029 14.1157 20.2276 15.9229 19.7029C16.5569 19.5207 17.8687 19.4405 18.4663 19.5571C18.7067 19.6008 18.9108 19.6227 18.9326 19.6008C18.9545 19.5863 18.4007 16.3288 17.7011 12.3717L16.4403 5.17174L16.1197 4.86567C15.7116 4.47215 14.5383 3.69968 13.795 3.32802C12.6509 2.75961 11.0987 2.25677 9.93268 2.08187C9.3424 1.99443 7.80475 1.92155 7.46953 1.97256Z" fill="url(#paint0_linear_20_237)"/>
</g>
<path d="M166.722 24.7906C164.75 24.7906 162.913 24.5031 161.213 23.9281C159.537 23.331 158.07 22.5018 156.813 21.4403C155.58 20.3567 154.619 19.0851 153.929 17.6256C153.239 16.166 152.894 14.5738 152.894 12.8489C152.894 11.124 153.239 9.53177 153.929 8.07223C154.619 6.61269 155.593 5.35218 156.85 4.2907C158.107 3.20711 159.574 2.37782 161.25 1.80285C162.926 1.20577 164.762 0.907227 166.759 0.907227C168.878 0.907227 170.813 1.23894 172.563 1.90237C174.313 2.54368 175.792 3.50565 177 4.78827L173.894 7.40881C172.958 6.50212 171.91 5.82764 170.752 5.38535C169.593 4.92096 168.336 4.68876 166.98 4.68876C165.625 4.68876 164.38 4.88779 163.246 5.28584C162.137 5.6839 161.163 6.24781 160.325 6.97758C159.512 7.70735 158.871 8.5698 158.403 9.56494C157.959 10.5601 157.737 11.6547 157.737 12.8489C157.737 14.0431 157.959 15.1377 158.403 16.1329C158.871 17.128 159.512 17.9905 160.325 18.7202C161.163 19.45 162.137 20.0139 163.246 20.412C164.38 20.81 165.625 21.009 166.98 21.009C168.336 21.009 169.593 20.7879 170.752 20.3456C171.91 19.8812 172.958 19.1846 173.894 18.2558L177 20.9095C175.792 22.17 174.313 23.132 172.563 23.7954C170.813 24.4589 168.866 24.7906 166.722 24.7906Z" fill="#EFEFEF"/>
<path d="M140.256 9.10037C143.337 9.10037 145.716 9.71957 147.392 10.958C149.068 12.1964 149.906 14.054 149.906 16.5307C149.906 19.1402 148.982 21.1194 147.133 22.4684C145.309 23.7953 142.758 24.4587 139.48 24.4587H128.351V1.23877H133.084V9.10037H140.256ZM139.258 21.1416C141.107 21.1416 142.536 20.7546 143.547 19.9806C144.582 19.2066 145.1 18.0787 145.1 16.5971C145.1 15.1376 144.595 14.0761 143.584 13.4126C142.573 12.7271 141.131 12.3843 139.258 12.3843H133.084V21.1416H139.258Z" fill="#EFEFEF"/>
<path d="M98.4429 24.7904C98.0239 24.7904 97.6049 24.7572 97.1859 24.6909C96.7668 24.6245 96.3108 24.5471 95.8179 24.4587L96.1506 20.7103C96.4957 20.7988 96.8654 20.843 97.2598 20.843C98.2951 20.843 99.1208 20.4671 99.737 19.7152C100.353 18.9412 100.797 17.8134 101.068 16.3317C101.339 14.8501 101.524 13.0256 101.623 10.8584L101.992 1.23877H121.033V24.4587H116.301V3.82613L117.41 4.88761H105.098L106.133 3.79296L105.875 10.6926C105.801 12.9925 105.628 15.0159 105.357 16.7629C105.086 18.51 104.667 19.9806 104.1 21.1747C103.558 22.3468 102.83 23.2424 101.918 23.8616C101.006 24.4808 99.8479 24.7904 98.4429 24.7904Z" fill="#EFEFEF"/>
<path d="M74.0914 20.8098C75.4471 21.23 76.6425 21.3406 77.6778 21.1416C78.713 20.9425 79.6373 20.268 80.4507 19.1181L81.7078 17.36L82.1885 16.8956L91.2099 1.23877H95.9424L84.7026 19.9806C83.7906 21.5507 82.7061 22.7448 81.449 23.5631C80.1919 24.3813 78.8363 24.8346 77.382 24.9231C75.9524 25.0337 74.4611 24.7904 72.9083 24.1933L74.0914 20.8098ZM82.0775 20.6108L70.542 1.23877H75.6812L84.7026 17.2937L82.0775 20.6108Z" fill="#EFEFEF"/>
<path d="M43.5374 24.4587V1.23877H66.4236V24.4587H61.6911V3.82613L62.8002 4.88761H47.1607L48.2699 3.82613V24.4587H43.5374Z" fill="#EFEFEF"/>
<path d="M173.098 35.6377V32.3164H174.721C175.123 32.3164 175.438 32.391 175.666 32.5403C175.899 32.6896 176.015 32.9011 176.015 33.1747C176.015 33.4442 175.907 33.6557 175.691 33.8091C175.476 33.9584 175.19 34.033 174.833 34.033L174.926 33.8402C175.328 33.8402 175.627 33.9148 175.822 34.0641C176.021 34.2092 176.12 34.4228 176.12 34.7047C176.12 34.9991 176.011 35.2293 175.791 35.3951C175.571 35.5568 175.237 35.6377 174.789 35.6377H173.098ZM173.838 35.0717H174.727C174.939 35.0717 175.098 35.0385 175.206 34.9722C175.314 34.9017 175.368 34.796 175.368 34.655C175.368 34.5057 175.318 34.3958 175.219 34.3253C175.119 34.2549 174.964 34.2196 174.752 34.2196H173.838V35.0717ZM173.838 33.7034H174.653C174.852 33.7034 175.001 33.6681 175.1 33.5976C175.204 33.523 175.256 33.4194 175.256 33.2867C175.256 33.1498 175.204 33.0482 175.1 32.9819C175.001 32.9156 174.852 32.8824 174.653 32.8824H173.838V33.7034Z" fill="#EFEFEF"/>
<path d="M169.997 35.6814C169.657 35.6814 169.354 35.6089 169.089 35.4637C168.824 35.3145 168.614 35.1113 168.461 34.8542C168.307 34.5971 168.231 34.3048 168.231 33.9773C168.231 33.6455 168.307 33.3532 168.461 33.1003C168.614 32.8432 168.824 32.6421 169.089 32.497C169.354 32.3519 169.657 32.2793 169.997 32.2793C170.341 32.2793 170.646 32.3519 170.911 32.497C171.181 32.6421 171.39 32.8411 171.54 33.0941C171.693 33.347 171.77 33.6414 171.77 33.9773C171.77 34.3048 171.693 34.5971 171.54 34.8542C171.39 35.1113 171.181 35.3145 170.911 35.4637C170.646 35.6089 170.341 35.6814 169.997 35.6814ZM169.997 35.0159C170.188 35.0159 170.358 34.9745 170.507 34.8915C170.656 34.8086 170.772 34.6884 170.855 34.5308C170.942 34.3732 170.986 34.1887 170.986 33.9773C170.986 33.7616 170.942 33.5771 170.855 33.4237C170.772 33.2661 170.656 33.1459 170.507 33.063C170.358 32.98 170.19 32.9386 170.003 32.9386C169.813 32.9386 169.643 32.98 169.493 33.063C169.348 33.1459 169.232 33.2661 169.145 33.4237C169.058 33.5771 169.014 33.7616 169.014 33.9773C169.014 34.1887 169.058 34.3732 169.145 34.5308C169.232 34.6884 169.348 34.8086 169.493 34.8915C169.643 34.9745 169.81 35.0159 169.997 35.0159Z" fill="#EFEFEF"/>
<path d="M165.598 35.6377V32.7891L165.779 32.9757H164.429V32.3164H167.539V32.9757H166.195L166.376 32.7891V35.6377H165.598Z" fill="#EFEFEF"/>
<path d="M160.078 35.6377V32.3164H160.856V33.6661H162.529V32.3164H163.306V35.6377H162.529V34.3253H160.856V35.6377H160.078Z" fill="#EFEFEF"/>
<path d="M157.823 35.6379V34.9662L157.779 34.8231V33.6476C157.779 33.4196 157.711 33.2433 157.574 33.1189C157.437 32.9904 157.23 32.9261 156.952 32.9261C156.765 32.9261 156.581 32.9552 156.398 33.0132C156.22 33.0713 156.069 33.1521 155.944 33.2558L155.64 32.6898C155.818 32.553 156.029 32.4514 156.274 32.385C156.523 32.3145 156.78 32.2793 157.045 32.2793C157.526 32.2793 157.897 32.3954 158.159 32.6276C158.424 32.8556 158.557 33.2102 158.557 33.6912V35.6379H157.823ZM156.778 35.6814C156.529 35.6814 156.311 35.64 156.125 35.557C155.938 35.47 155.793 35.3518 155.689 35.2025C155.59 35.0491 155.54 34.877 155.54 34.6863C155.54 34.4997 155.584 34.3318 155.671 34.1825C155.762 34.0332 155.909 33.9151 156.112 33.828C156.315 33.7409 156.585 33.6974 156.921 33.6974H157.885V34.2136H156.977C156.711 34.2136 156.533 34.2571 156.442 34.3442C156.351 34.4271 156.305 34.5308 156.305 34.6552C156.305 34.7962 156.361 34.9081 156.473 34.9911C156.585 35.074 156.74 35.1154 156.939 35.1154C157.13 35.1154 157.3 35.0719 157.449 34.9848C157.603 34.8978 157.713 34.7692 157.779 34.5992L157.91 35.0657C157.835 35.2606 157.7 35.4119 157.505 35.5197C157.315 35.6275 157.072 35.6814 156.778 35.6814Z" fill="#EFEFEF"/>
<path d="M153.845 35.6377L152.645 34.0455L153.28 33.6536L154.76 35.6377H153.845ZM151.463 35.6377V32.3164H152.241V35.6377H151.463ZM152.011 34.3067V33.6598H153.136V34.3067H152.011ZM153.354 34.0703L152.626 33.9833L153.845 32.3164H154.679L153.354 34.0703Z" fill="#EFEFEF"/>
<path d="M149.081 35.6377V32.3164H149.859V35.6377H149.081ZM147.346 33.4111C147.773 33.4111 148.096 33.5064 148.316 33.6972C148.54 33.8879 148.652 34.1574 148.652 34.5057C148.652 34.8665 148.528 35.1484 148.279 35.3516C148.034 35.5506 147.686 35.6481 147.234 35.6439L145.729 35.6377V32.3164H146.506V33.4048L147.346 33.4111ZM147.165 35.0717C147.394 35.0758 147.568 35.0282 147.688 34.9286C147.808 34.8291 147.868 34.684 147.868 34.4933C147.868 34.3025 147.808 34.1657 147.688 34.0828C147.572 33.9957 147.398 33.9501 147.165 33.9459L146.506 33.9397V35.0655L147.165 35.0717Z" fill="#EFEFEF"/>
<path d="M142.782 35.6938C142.529 35.6938 142.279 35.6648 142.03 35.6068C141.785 35.5446 141.563 35.4575 141.364 35.3455L141.582 34.7671C141.744 34.8583 141.926 34.9288 142.129 34.9786C142.332 35.0283 142.536 35.0532 142.739 35.0532C142.913 35.0532 143.062 35.0366 143.187 35.0035C143.311 34.9661 143.406 34.9122 143.473 34.8417C143.543 34.7713 143.578 34.6904 143.578 34.5992C143.578 34.4665 143.52 34.367 143.404 34.3006C143.292 34.2302 143.131 34.1949 142.919 34.1949H142.279V33.6725H142.857C142.99 33.6725 143.102 33.6579 143.193 33.6289C143.288 33.5999 143.361 33.5564 143.411 33.4983C143.46 33.4403 143.485 33.3718 143.485 33.2931C143.485 33.2143 143.454 33.1459 143.392 33.0878C143.334 33.0256 143.249 32.98 143.137 32.951C143.025 32.9178 142.89 32.9012 142.733 32.9012C142.567 32.9012 142.395 32.922 142.216 32.9634C142.042 33.0049 141.864 33.065 141.681 33.1438L141.482 32.5716C141.694 32.4762 141.899 32.4037 142.098 32.3539C142.301 32.3 142.502 32.271 142.701 32.2668C143.004 32.2544 143.274 32.2855 143.51 32.3601C143.746 32.4348 143.933 32.5426 144.07 32.6835C144.207 32.8245 144.275 32.9904 144.275 33.1811C144.275 33.3387 144.225 33.4817 144.126 33.6103C144.03 33.7347 143.898 33.8321 143.728 33.9026C143.562 33.9731 143.371 34.0083 143.156 34.0083L143.18 33.8404C143.549 33.8404 143.84 33.915 144.051 34.0643C144.263 34.2094 144.368 34.4084 144.368 34.6614C144.368 34.8646 144.3 35.0449 144.163 35.2025C144.026 35.3559 143.838 35.4762 143.597 35.5632C143.361 35.6503 143.089 35.6938 142.782 35.6938Z" fill="#EFEFEF"/>
<path d="M137.874 36.8878C137.713 36.8878 137.551 36.8609 137.389 36.807C137.227 36.7531 137.093 36.6784 136.985 36.5831L137.296 36.0109C137.375 36.0814 137.464 36.1373 137.563 36.1788C137.663 36.2203 137.764 36.241 137.868 36.241C138.009 36.241 138.123 36.2057 138.21 36.1353C138.297 36.0648 138.378 35.9466 138.453 35.7807L138.646 35.3454L138.708 35.2521L139.964 32.3164H140.71L139.156 35.9051C139.052 36.1539 138.936 36.3509 138.807 36.496C138.683 36.6411 138.542 36.7427 138.384 36.8008C138.231 36.8588 138.061 36.8878 137.874 36.8878ZM138.558 35.7559L137.059 32.3164H137.868L139.087 35.1837L138.558 35.7559Z" fill="#EFEFEF"/>
<path d="M132.005 35.6377V32.3164H132.82L134.157 34.6736H133.833L135.239 32.3164H135.967L135.973 35.6377H135.27V33.1498L135.395 33.2307L134.151 35.2894H133.815L132.565 33.1747L132.714 33.1374V35.6377H132.005Z" fill="#EFEFEF"/>
<path d="M127.424 35.6377V34.5057L127.536 34.6363H126.541C126.085 34.6363 125.726 34.541 125.465 34.3502C125.208 34.1553 125.079 33.8755 125.079 33.5106C125.079 33.1208 125.216 32.8243 125.49 32.6212C125.768 32.418 126.137 32.3164 126.597 32.3164H128.121V35.6377H127.424ZM125.036 35.6377L125.932 34.3689H126.728L125.869 35.6377H125.036ZM127.424 34.2569V32.7642L127.536 32.9695H126.622C126.381 32.9695 126.195 33.0151 126.062 33.1063C125.934 33.1934 125.869 33.3364 125.869 33.5355C125.869 33.9086 126.112 34.0952 126.597 34.0952H127.536L127.424 34.2569Z" fill="#EFEFEF"/>
<path d="M120.214 35.6315L120.251 34.9784C120.28 34.9826 120.307 34.9867 120.332 34.9908C120.357 34.995 120.38 34.9971 120.4 34.9971C120.529 34.9971 120.629 34.9577 120.699 34.8789C120.769 34.8001 120.821 34.6944 120.854 34.5617C120.892 34.4249 120.917 34.2735 120.929 34.1077C120.946 33.9377 120.958 33.7677 120.966 33.5976L121.022 32.3164H123.709V35.6377H122.932V32.7642L123.112 32.9757H121.532L121.7 32.758L121.657 33.635C121.644 33.9294 121.62 34.203 121.582 34.456C121.549 34.7047 121.495 34.9224 121.42 35.109C121.35 35.2956 121.25 35.4407 121.122 35.5444C120.998 35.6481 120.838 35.6999 120.643 35.6999C120.581 35.6999 120.512 35.6937 120.438 35.6812C120.367 35.6688 120.293 35.6522 120.214 35.6315Z" fill="#EFEFEF"/>
<path d="M118.176 35.2769V32.9757H116.901L116.882 33.5106C116.874 33.7013 116.862 33.8858 116.845 34.0641C116.828 34.2383 116.801 34.4 116.764 34.5493C116.727 34.6944 116.673 34.8146 116.602 34.91C116.532 35.0054 116.439 35.0676 116.323 35.0966L115.551 34.9784C115.676 34.9784 115.775 34.939 115.85 34.8602C115.929 34.7773 115.989 34.6653 116.03 34.5244C116.076 34.3792 116.109 34.2155 116.13 34.033C116.15 33.8464 116.165 33.6536 116.173 33.4546L116.217 32.3164H118.953V35.2769H118.176ZM115.433 36.3778V34.9784H119.445V36.3778H118.717V35.6377H116.155V36.3778H115.433Z" fill="#EFEFEF"/>
<path d="M108.791 35.6377V32.3164H109.569V33.6661H111.242V32.3164H112.019V35.6377H111.242V34.3253H109.569V35.6377H108.791Z" fill="#EFEFEF"/>
<path d="M103.864 35.6377V32.3164H104.642V34.5057L106.476 32.3164H107.186V35.6377H106.408V33.4484L104.58 35.6377H103.864Z" fill="#EFEFEF"/>
<path d="M100.918 35.6938C100.665 35.6938 100.414 35.6648 100.165 35.6068C99.9206 35.5446 99.6988 35.4575 99.4998 35.3455L99.7174 34.7671C99.8792 34.8583 100.062 34.9288 100.265 34.9786C100.468 35.0283 100.671 35.0532 100.874 35.0532C101.048 35.0532 101.198 35.0366 101.322 35.0035C101.446 34.9661 101.542 34.9122 101.608 34.8417C101.679 34.7713 101.714 34.6904 101.714 34.5992C101.714 34.4665 101.656 34.367 101.54 34.3006C101.428 34.2302 101.266 34.1949 101.055 34.1949H100.414V33.6725H100.992C101.125 33.6725 101.237 33.6579 101.328 33.6289C101.424 33.5999 101.496 33.5564 101.546 33.4983C101.596 33.4403 101.621 33.3718 101.621 33.2931C101.621 33.2143 101.59 33.1459 101.527 33.0878C101.469 33.0256 101.384 32.98 101.272 32.951C101.16 32.9178 101.026 32.9012 100.868 32.9012C100.702 32.9012 100.53 32.922 100.352 32.9634C100.178 33.0049 99.9994 33.065 99.817 33.1438L99.6179 32.5716C99.8294 32.4762 100.035 32.4037 100.234 32.3539C100.437 32.3 100.638 32.271 100.837 32.2668C101.14 32.2544 101.409 32.2855 101.646 32.3601C101.882 32.4348 102.068 32.5426 102.205 32.6835C102.342 32.8245 102.411 32.9904 102.411 33.1811C102.411 33.3387 102.361 33.4817 102.261 33.6103C102.166 33.7347 102.033 33.8321 101.863 33.9026C101.697 33.9731 101.507 34.0083 101.291 34.0083L101.316 33.8404C101.685 33.8404 101.975 33.915 102.187 34.0643C102.398 34.2094 102.504 34.4084 102.504 34.6614C102.504 34.8646 102.435 35.0449 102.299 35.2025C102.162 35.3559 101.973 35.4762 101.733 35.5632C101.496 35.6503 101.225 35.6938 100.918 35.6938Z" fill="#EFEFEF"/>
<path d="M97.6535 35.6379V34.9662L97.6099 34.8231V33.6476C97.6099 33.4196 97.5415 33.2433 97.4047 33.1189C97.2678 32.9904 97.0605 32.9261 96.7827 32.9261C96.5961 32.9261 96.4116 32.9552 96.2292 33.0132C96.0509 33.0713 95.8995 33.1521 95.7751 33.2558L95.4704 32.6898C95.6487 32.553 95.8601 32.4514 96.1048 32.385C96.3536 32.3145 96.6106 32.2793 96.876 32.2793C97.357 32.2793 97.7281 32.3954 97.9893 32.6276C98.2547 32.8556 98.3874 33.2102 98.3874 33.6912V35.6379H97.6535ZM96.6086 35.6814C96.3598 35.6814 96.1421 35.64 95.9555 35.557C95.7689 35.47 95.6238 35.3518 95.5201 35.2025C95.4206 35.0491 95.3708 34.877 95.3708 34.6863C95.3708 34.4997 95.4144 34.3318 95.5015 34.1825C95.5927 34.0332 95.7399 33.9151 95.9431 33.828C96.1462 33.7409 96.4157 33.6974 96.7516 33.6974H97.7156V34.2136H96.8076C96.5422 34.2136 96.3639 34.2571 96.2727 34.3442C96.1815 34.4271 96.1359 34.5308 96.1359 34.6552C96.1359 34.7962 96.1918 34.9081 96.3038 34.9911C96.4157 35.074 96.5712 35.1154 96.7703 35.1154C96.961 35.1154 97.131 35.0719 97.2803 34.9848C97.4337 34.8978 97.5436 34.7692 97.6099 34.5992L97.7405 35.0657C97.6659 35.2606 97.5311 35.4119 97.3362 35.5197C97.1455 35.6275 96.9029 35.6814 96.6086 35.6814Z" fill="#EFEFEF"/>
<path d="M91.9626 35.6377V32.3164H94.5127V32.9757H92.5597L92.7401 32.8015V35.6377H91.9626Z" fill="#EFEFEF"/>
<path d="M89.7069 35.6379V34.9662L89.6634 34.8231V33.6476C89.6634 33.4196 89.595 33.2433 89.4581 33.1189C89.3213 32.9904 89.114 32.9261 88.8362 32.9261C88.6496 32.9261 88.4651 32.9552 88.2826 33.0132C88.1043 33.0713 87.953 33.1521 87.8286 33.2558L87.5238 32.6898C87.7021 32.553 87.9136 32.4514 88.1582 32.385C88.407 32.3145 88.6641 32.2793 88.9295 32.2793C89.4105 32.2793 89.7816 32.3954 90.0428 32.6276C90.3081 32.8556 90.4408 33.2102 90.4408 33.6912V35.6379H89.7069ZM88.662 35.6814C88.4132 35.6814 88.1956 35.64 88.009 35.557C87.8224 35.47 87.6772 35.3518 87.5736 35.2025C87.4741 35.0491 87.4243 34.877 87.4243 34.6863C87.4243 34.4997 87.4679 34.3318 87.5549 34.1825C87.6462 34.0332 87.7933 33.9151 87.9965 33.828C88.1997 33.7409 88.4692 33.6974 88.8051 33.6974H89.7691V34.2136H88.8611C88.5957 34.2136 88.4174 34.2571 88.3262 34.3442C88.2349 34.4271 88.1893 34.5308 88.1893 34.6552C88.1893 34.7962 88.2453 34.9081 88.3573 34.9911C88.4692 35.074 88.6247 35.1154 88.8237 35.1154C89.0145 35.1154 89.1845 35.0719 89.3337 34.9848C89.4872 34.8978 89.597 34.7692 89.6634 34.5992L89.794 35.0657C89.7194 35.2606 89.5846 35.4119 89.3897 35.5197C89.199 35.6275 88.9564 35.6814 88.662 35.6814Z" fill="#EFEFEF"/>
<path d="M82.1211 35.6377V32.3164H82.9359L84.2731 34.6736H83.9497L85.3553 32.3164H86.083L86.0892 35.6377H85.3864V33.1498L85.5108 33.2307L84.2669 35.2894H83.931L82.6809 33.1747L82.8301 33.1374V35.6377H82.1211Z" fill="#EFEFEF"/>
<path d="M78.9878 34.2323V33.5854H80.6982V34.2323H78.9878Z" fill="#EFEFEF"/>
<path d="M76.1952 35.6377V32.7891L76.3755 32.9757H75.0259V32.3164H78.1357V32.9757H76.7923L76.9726 32.7891V35.6377H76.1952Z" fill="#EFEFEF"/>
<path d="M72.6612 35.6814C72.2922 35.6814 71.9688 35.6089 71.6909 35.4637C71.4173 35.3145 71.2037 35.1113 71.0503 34.8542C70.9011 34.5971 70.8264 34.3048 70.8264 33.9773C70.8264 33.6455 70.899 33.3532 71.0441 33.1003C71.1934 32.8432 71.3965 32.6421 71.6536 32.497C71.9148 32.3519 72.2113 32.2793 72.543 32.2793C72.8665 32.2793 73.1546 32.3498 73.4076 32.4908C73.6605 32.6317 73.8595 32.8308 74.0046 33.0878C74.1498 33.3449 74.2223 33.6476 74.2223 33.9959C74.2223 34.0291 74.2203 34.0664 74.2161 34.1079C74.2161 34.1493 74.214 34.1887 74.2099 34.226H71.4422V33.7098H73.7994L73.4946 33.8715C73.4988 33.6808 73.4594 33.5129 73.3765 33.3677C73.2935 33.2226 73.1795 33.1086 73.0344 33.0257C72.8934 32.9427 72.7296 32.9013 72.543 32.9013C72.3523 32.9013 72.1844 32.9427 72.0392 33.0257C71.8983 33.1086 71.7863 33.2247 71.7034 33.374C71.6246 33.5191 71.5852 33.6912 71.5852 33.8902V34.0146C71.5852 34.2136 71.6308 34.3898 71.722 34.5432C71.8133 34.6967 71.9418 34.8148 72.1077 34.8978C72.2735 34.9807 72.4642 35.0222 72.6799 35.0222C72.8665 35.0222 73.0344 34.9931 73.1837 34.9351C73.3329 34.877 73.4656 34.7858 73.5817 34.6614L73.9984 35.1403C73.8492 35.3145 73.6605 35.4492 73.4324 35.5446C73.2085 35.6358 72.9515 35.6814 72.6612 35.6814Z" fill="#EFEFEF"/>
<path d="M66.2827 35.6377V32.3164H67.0602V33.6661H68.7332V32.3164H69.5107V35.6377H68.7332V34.3253H67.0602V35.6377H66.2827Z" fill="#EFEFEF"/>
<path d="M63.2636 35.6814C62.9941 35.6814 62.7474 35.6192 62.5235 35.4948C62.3037 35.3704 62.1275 35.1839 61.9948 34.9351C61.8663 34.6821 61.802 34.3629 61.802 33.9773C61.802 33.5875 61.8642 33.2682 61.9886 33.0194C62.1171 32.7706 62.2913 32.5861 62.511 32.4659C62.7308 32.3415 62.9817 32.2793 63.2636 32.2793C63.5912 32.2793 63.8794 32.3498 64.1281 32.4908C64.3811 32.6317 64.5801 32.8287 64.7252 33.0816C64.8745 33.3346 64.9491 33.6331 64.9491 33.9773C64.9491 34.3214 64.8745 34.622 64.7252 34.8791C64.5801 35.132 64.3811 35.329 64.1281 35.47C63.8794 35.6109 63.5912 35.6814 63.2636 35.6814ZM61.4226 36.8445V32.3166H62.1627V33.1003L62.1379 33.9835L62.2001 34.8667V36.8445H61.4226ZM63.1765 35.0159C63.3631 35.0159 63.529 34.9745 63.6741 34.8915C63.8234 34.8086 63.9416 34.6884 64.0286 34.5308C64.1157 34.3732 64.1592 34.1887 64.1592 33.9773C64.1592 33.7616 64.1157 33.5771 64.0286 33.4237C63.9416 33.2661 63.8234 33.1459 63.6741 33.063C63.529 32.98 63.3631 32.9386 63.1765 32.9386C62.99 32.9386 62.822 32.98 62.6728 33.063C62.5235 33.1459 62.4053 33.2661 62.3182 33.4237C62.2312 33.5771 62.1876 33.7616 62.1876 33.9773C62.1876 34.1887 62.2312 34.3732 62.3182 34.5308C62.4053 34.6884 62.5235 34.8086 62.6728 34.8915C62.822 34.9745 62.99 35.0159 63.1765 35.0159Z" fill="#EFEFEF"/>
<path d="M58.4515 35.6814C58.0825 35.6814 57.759 35.6089 57.4812 35.4637C57.2076 35.3145 56.994 35.1113 56.8406 34.8542C56.6913 34.5971 56.6167 34.3048 56.6167 33.9773C56.6167 33.6455 56.6893 33.3532 56.8344 33.1003C56.9837 32.8432 57.1868 32.6421 57.4439 32.497C57.7051 32.3519 58.0016 32.2793 58.3333 32.2793C58.6567 32.2793 58.9449 32.3498 59.1978 32.4908C59.4508 32.6317 59.6498 32.8308 59.7949 33.0878C59.94 33.3449 60.0126 33.6476 60.0126 33.9959C60.0126 34.0291 60.0105 34.0664 60.0064 34.1079C60.0064 34.1493 60.0043 34.1887 60.0002 34.226H57.2324V33.7098H59.5897L59.2849 33.8715C59.2891 33.6808 59.2497 33.5129 59.1667 33.3677C59.0838 33.2226 58.9698 33.1086 58.8247 33.0257C58.6837 32.9427 58.5199 32.9013 58.3333 32.9013C58.1426 32.9013 57.9746 32.9427 57.8295 33.0257C57.6885 33.1086 57.5766 33.2247 57.4937 33.374C57.4149 33.5191 57.3755 33.6912 57.3755 33.8902V34.0146C57.3755 34.2136 57.4211 34.3898 57.5123 34.5432C57.6035 34.6967 57.7321 34.8148 57.8979 34.8978C58.0638 34.9807 58.2545 35.0222 58.4701 35.0222C58.6567 35.0222 58.8247 34.9931 58.9739 34.9351C59.1232 34.877 59.2559 34.7858 59.372 34.6614L59.7887 35.1403C59.6394 35.3145 59.4508 35.4492 59.2227 35.5446C58.9988 35.6358 58.7417 35.6814 58.4515 35.6814Z" fill="#EFEFEF"/>
<path d="M53.9842 35.6377V32.7891L54.1646 32.9757H52.8149V32.3164H55.9248V32.9757H54.5813L54.7617 32.7891V35.6377H53.9842Z" fill="#EFEFEF"/>
<path d="M48.4641 35.6377V32.3164H49.2416V33.6661H50.9146V32.3164H51.6921V35.6377H50.9146V34.3253H49.2416V35.6377H48.4641Z" fill="#EFEFEF"/>
<path d="M43.5374 35.6382V32.3169H44.3148V34.5062L46.1496 32.3169H46.8586V35.6382H46.0812V33.4489L44.2526 35.6382H43.5374Z" fill="#EFEFEF"/>
<defs>
<linearGradient id="paint0_linear_20_237" x1="18.6551" y1="35.0283" x2="18.6551" y2="1.94345" gradientUnits="userSpaceOnUse">
<stop stop-color="#FF575A"/>
<stop offset="1" stop-color="#C0282B"/>
</linearGradient>
<clipPath id="clip0_20_237">
<rect width="37.3116" height="37.3116" fill="white"/>
</clipPath>
</defs>
</svg>
